<svg xmlns="http://www.w3.org/2000/svg" viewBox="0 0 32 32">
  <title>Zac Rains Photography</title>
  <rect width="32" height="32" rx="7" fill="#0a0e0e"/>
  <circle cx="16" cy="16" r="11.5" fill="#ff5b1a"/>
  <path fill="#0a0e0e" d="M16 9.2a6.8 6.8 0 0 1 5.9 3.4l-5.9 3.4z"/>
  <path fill="#0a0e0e" d="M21.9 12.6a6.8 6.8 0 0 1 0 6.8L16 16z"/>
  <path fill="#0a0e0e" d="M21.9 19.4a6.8 6.8 0 0 1-5.9 3.4V16z"/>
  <path fill="#0a0e0e" d="M16 22.8a6.8 6.8 0 0 1-5.9-3.4l5.9-3.4z"/>
  <path fill="#0a0e0e" d="M10.1 19.4a6.8 6.8 0 0 1 0-6.8l5.9 3.4z"/>
  <path fill="#0a0e0e" d="M10.1 12.6A6.8 6.8 0 0 1 16 9.2V16z"/>
  <circle cx="16" cy="16" r="3.15" fill="#f1eee7"/>
  <circle cx="16" cy="16" r="1.55" fill="#0a0e0e"/>
</svg>
